<?xml version="1.0" encoding="UTF-8" standalone="no"?>
<!-- Created with Inkscape (http://www.inkscape.org/) -->

<svg
   xmlns:dc="http://purl.org/dc/elements/1.1/"
   xmlns:cc="http://creativecommons.org/ns#"
   xmlns:rdf="http://www.w3.org/1999/02/22-rdf-syntax-ns#"
   xmlns:svg="http://www.w3.org/2000/svg"
   xmlns="http://www.w3.org/2000/svg"
   xmlns:sodipodi="http://sodipodi.sourceforge.net/DTD/sodipodi-0.dtd"
   xmlns:inkscape="http://www.inkscape.org/namespaces/inkscape"
   width="256"
   height="256"
   id="svg4545"
   version="1.1"
   inkscape:version="0.48.2 r9819"
   sodipodi:docname="gears.svg"
   viewBox="0 0 256 256" 
   class="gear-icon">
  <defs
     id="defs4547">
      		<style type="text/css"><![CDATA[
			shine {
				fill: #ffffff;
				fill-opacity: 1;
				stroke: #000000;
				stroke-width: 3.29547524px;
				stroke-linecap: butt;
				stroke-linejoin: miter;
				stroke-opacity: 1;
			}
			gear {
				fill: #000000;
				fill-opacity: 1;
				stroke: #000000;
				stroke-width: 3.29547524px;
				stroke-linecap: butt;
				stroke-linejoin: miter;
				stroke-opacity: 1;
			}
		]]></style>
     
  </defs>
  <sodipodi:namedview
     id="base"
     pagecolor="#ffffff"
     bordercolor="#666666"
     borderopacity="1.0"
     inkscape:pageopacity="0.0"
     inkscape:pageshadow="2"
     inkscape:zoom="0.98994949"
     inkscape:cx="146.07643"
     inkscape:cy="123.90577"
     inkscape:document-units="px"
     inkscape:current-layer="svg4545"
     showgrid="false"
     inkscape:window-width="1600"
     inkscape:window-height="878"
     inkscape:window-x="1912"
     inkscape:window-y="-8"
     inkscape:window-maximized="1" />
  <metadata
     id="metadata4550">
    <rdf:RDF>
      <cc:Work
         rdf:about="">
        <dc:format>image/svg+xml</dc:format>
        <dc:type
           rdf:resource="http://purl.org/dc/dcmitype/StillImage" />
        <dc:title></dc:title>
      </cc:Work>
    </rdf:RDF>
  </metadata>
  <g
     inkscape:label="Layer 1"
     inkscape:groupmode="layer"
     id="layer1"
     transform="translate(0,-796.36218)">
    <path
       d="m 122.97942,1047.1085 -12.65113,2.7499 -9.50033,-16.0015 -11.350868,-2.3505 -15.901676,15.5008 -12.350835,-6.9509 2.250658,-17.3513 -9.531798,-9.2198 -19.314166,4.6499 -8.062815,-12.8513 14.207793,-14.98204 -2.137534,-10.52588 -19.70138,-8.2137 2.588096,-14.41359 19.551699,-4.24983 5.041669,-10.86374 -10.293222,-16.49926 10.276268,-11.49558 18.333042,7.93841 10.642939,-5.40068 2.139727,-21.01158 14.987519,-3.04494 10.319714,18.09042 11.44717,1.23782 13.5205,-15.18155 13.91771,6.23666 -2.17949,19.84915 8.77748,7.56689 19.42944,-4.64909 7.97739,12.21204 -14.5017,15.07546 2.8814,11.29704 18.17786,7.54628 -1.35235,14.02705 -19.26768,3.19643 -5.59397,12.21451 10.27995,16.928 -10.60336,11.4602 -17.99267,-8.3317 -10.87283,6.3023 -1.35296,19.2437 z"
       id="path3801"
       inkscape:connector-curvature="0"
       sodipodi:nodetypes="cccccccccccccccccccccccccccccccccccccccccc"
       class="gear gear-large" />
    <path
       d="m 55.254839,958.99977 c 0,0 8.539789,-28.09252 29.759926,-37.46468 2.972925,-1.31307 11.660162,13.41483 11.660162,13.41483 0,0 -21.837134,13.32366 -28.48198,28.72561 -0.164811,0.38214 -12.938108,-4.67576 -12.938108,-4.67576 z"
       id="path3805"
       inkscape:connector-curvature="0"
       sodipodi:nodetypes="cscsc"
       class="shine shine-large" />
    <path
       sodipodi:nodetypes="ccccccccccccccccccccccccccccc"
       inkscape:connector-curvature="0"
       id="path4469"
       d="m 168.02702,913.17823 -14.47505,11.96224 -10.05343,-9.48246 11.2879,-14.90617 -3.73622,-11.30981 -18.96948,-7.19448 1.90309,-12.20386 20.15943,-0.62121 5.84159,-8.5046 -7.12046,-18.25463 10.01644,-5.76583 13.28683,14.55656 11.9253,-0.77323 11.08268,-15.89384 10.61172,4.73027 -4.46791,19.31451 7.69087,8.98254 19.56301,-1.01245 2.28392,10.4227 -17.34039,5.22664 -1.40724,11.34796 14.30978,10.89662 -7.46093,11.77328 -15.56499,-7.78285 -11.49996,6.82692 1.04373,17.61486 -13.02163,2.74453 -4.59901,-18.89729 z"
       class="gear gear-medium" />
    <path
       sodipodi:nodetypes="cscsc"
       inkscape:connector-curvature="0"
       id="path3805-2"
       d="m 157.39161,877.11121 c 0,0 6.77362,-16.08726 19.8964,-20.32689 1.83848,-0.59397 6.07152,8.64786 6.07152,8.64786 0,0 -13.73014,6.53829 -18.60444,15.23781 -0.12095,0.21421 -7.36348,-3.55878 -7.36348,-3.55878 z"
       class="shine shine-medium" />
    <path
       d="m 125.8988,855.26092 18.93946,10.26017 7.9062,-9.98681 -13.93989,-16.85273 -1.76852,-12.58753 9.50616,-18.57781 -10.88683,-7.65021 -15.59465,14.12348 -11.52579,2.05967 -17.166861,-8.53294 -8.411041,9.86135 12.042886,14.36718 1.815906,13.72829 -9.415634,15.88891 9.415667,7.94443 16.477377,-12.56607 z"
       id="path4507"
       inkscape:connector-curvature="0"
       sodipodi:nodetypes="ccccccccccccccccc"
       class="gear gear-small" />
    <path
       sodipodi:nodetypes="cscsc"
       inkscape:connector-curvature="0"
       id="path3805-2-4"
       d="m 102.79933,832.33984 c 0,0 4.70716,-11.17954 13.82659,-14.12576 1.27763,-0.41276 4.21927,6.00963 4.21927,6.00963 0,0 -9.54149,4.54367 -12.92878,10.58925 -0.084,0.14995 -5.11708,-2.47312 -5.11708,-2.47312 z"
       class="shine shine-small" />
  </g>
</svg>
